Coordinates
version=1
nRows=18
nColumns=63
inDegrees=yes

Units are S.I. units (second, meters, Newtons, ...)
If the header above contains a line with 'inDegrees', this indicates whether rotational values are in degrees (yes) or radians (no).

endheader
time	pelvis_tilt	pelvis_list	pelvis_rotation	pelvis_tx	pelvis_ty	pelvis_tz	hip_flexion_r	hip_adduction_r	hip_rotation_r	knee_angle_r	knee_angle_r_beta	ankle_angle_r	subtalar_angle_r	mtp_angle_r	hip_flexion_l	hip_adduction_l	hip_rotation_l	knee_angle_l	knee_angle_l_beta	ankle_angle_l	subtalar_angle_l	mtp_angle_l	L5_S1_Flex_Ext	L5_S1_Lat_Bending	L5_S1_axial_rotation	L4_L5_Flex_Ext	L4_L5_Lat_Bending	L4_L5_axial_rotation	L3_L4_Flex_Ext	L3_L4_Lat_Bending	L3_L4_axial_rotation	L2_L3_Flex_Ext	L2_L3_Lat_Bending	L2_L3_axial_rotation	L1_L2_Flex_Ext	L1_L2_Lat_Bending	L1_L2_axial_rotation	L1_T12_Flex_Ext	L1_T12_Lat_Bending	L1_T12_axial_rotation	Abs_r3	Abs_r2	Abs_r1	Abs_t1	Abs_t2	neck_flexion	neck_bending	neck_rotation	arm_flex_r	arm_add_r	arm_rot_r	elbow_flex_r	pro_sup_r	wrist_flex_r	wrist_dev_r	arm_flex_l	arm_add_l	arm_rot_l	elbow_flex_l	pro_sup_l	wrist_flex_l	wrist_dev_l
0.000000	-1.517035	-4.121919	98.378690	0.102569	0.990002	0.534330	3.078265	-1.288968	0.109100	8.075221	0.140939	30.693738	4.168335	0.000000	4.874845	1.562689	9.225934	11.562651	0.201806	25.286740	-4.602559	0.000000	0.047974	-0.120993	-0.546972	0.089093	-0.160920	-0.581157	0.078817	-0.294182	-0.581157	0.054830	-0.294182	-0.478600	0.044549	-0.246728	-0.444414	0.027412	-0.187418	-0.410229	0.342674	-1.368693	-3.042091	0.000000	0.000000	19.618151	7.347344	9.652624	14.293832	-12.896154	65.288424	57.143994	65.746823	8.079288	-0.566602	1.533563	-12.760195	36.769474	62.910573	76.696733	14.297075	2.419848
0.016949	-1.517569	-4.130169	98.381492	0.101995	0.989816	0.534306	3.053885	-1.456243	-0.811595	8.404932	0.146694	31.018964	5.213608	0.000000	5.023615	1.608254	8.965294	11.776426	0.205537	25.928942	-4.298853	0.000000	0.049093	-0.108910	-0.539144	0.091171	-0.144850	-0.572841	0.080656	-0.264803	-0.572841	0.056109	-0.264803	-0.471751	0.045588	-0.222089	-0.438055	0.028052	-0.168701	-0.404358	0.350670	-1.232008	-2.998559	0.000000	0.000000	19.631956	7.199987	9.898720	14.595420	-13.260450	65.707732	57.862554	65.102018	7.604156	-1.344745	1.869214	-12.893705	37.146165	63.175041	76.782576	14.151408	2.390912
0.033898	-1.542498	-4.129223	98.344074	0.101502	0.989642	0.534216	3.018601	-1.631359	-1.627377	8.674229	0.151394	31.296741	6.217045	0.000000	5.126587	1.676441	8.773626	11.953149	0.208622	26.476764	-4.121139	0.000000	0.049139	-0.101274	-0.526057	0.091257	-0.134695	-0.558935	0.080731	-0.246238	-0.558935	0.056161	-0.246238	-0.460300	0.045631	-0.206519	-0.427421	0.028078	-0.156874	-0.394542	0.350998	-1.145636	-2.925769	0.000000	0.000000	19.620628	7.085884	10.153521	14.825637	-13.576902	66.103185	58.449441	64.173078	7.177760	-1.792944	2.110075	-13.003905	37.381612	63.418542	77.103689	14.080975	2.325231
0.050847	-1.588484	-4.120260	98.272614	0.101083	0.989479	0.534072	2.974208	-1.811494	-2.343103	8.887810	0.155122	31.530338	7.172723	0.000000	5.189406	1.763430	8.640116	12.096999	0.211132	26.939315	-4.049499	0.000000	0.048252	-0.097594	-0.508670	0.089609	-0.129800	-0.540461	0.079274	-0.237290	-0.540461	0.055148	-0.237290	-0.445086	0.044807	-0.199014	-0.413294	0.027571	-0.151173	-0.381502	0.344661	-1.104002	-2.829068	0.000000	0.000000	19.590142	7.000400	10.414165	14.987652	-13.851554	66.471807	58.917755	62.997530	6.795238	-1.944568	2.261950	-13.094372	37.487881	63.644659	77.623748	14.071760	2.227798
0.067797	-1.652187	-4.104459	98.173289	0.100732	0.989327	0.533883	2.922503	-1.993829	-2.963630	9.050373	0.157959	31.723022	8.074714	0.000000	5.217715	1.865398	8.553949	12.212154	0.213142	27.325702	-4.064011	0.000000	0.046573	-0.097376	-0.487944	0.086490	-0.129510	-0.518441	0.076514	-0.236759	-0.518441	0.053228	-0.236759	-0.426951	0.043247	-0.198569	-0.396455	0.026612	-0.150835	-0.365958	0.332664	-1.101534	-2.713800	0.000000	0.000000	19.546473	6.938900	10.677785	15.084634	-14.090448	66.810621	59.280595	61.612904	6.451726	-1.832989	2.330646	-13.168686	37.477039	63.856976	78.306429	14.109748	2.103603
0.084746	-1.730272	-4.082997	98.052277	0.100441	0.989187	0.533660	2.865284	-2.175543	-3.493814	9.166616	0.159988	31.878063	8.917095	0.000000	5.217159	1.978525	8.504310	12.302789	0.214724	27.645034	-4.144755	0.000000	0.044241	-0.100127	-0.464842	0.082160	-0.133169	-0.493895	0.072684	-0.243449	-0.493895	0.050563	-0.243449	-0.406737	0.041082	-0.204179	-0.377684	0.025279	-0.155097	-0.348632	0.316009	-1.132656	-2.585314	0.000000	0.000000	19.495596	6.896746	10.941517	15.119751	-14.299627	67.116652	59.551058	60.056728	6.142361	-1.491576	2.321968	-13.230425	37.361151	64.059075	79.115407	14.180923	1.957637
0.101695	-1.819399	-4.057054	97.915756	0.100206	0.989058	0.533413	2.804345	-2.353817	-3.938513	9.241236	0.161290	31.998726	9.693939	0.000000	5.193382	2.098990	8.480387	12.373084	0.215951	27.906420	-4.271811	0.000000	0.041398	-0.105355	-0.440325	0.076880	-0.140122	-0.467845	0.068013	-0.256160	-0.467845	0.047314	-0.256160	-0.385284	0.038442	-0.214840	-0.357764	0.023655	-0.163195	-0.330243	0.295701	-1.191795	-2.448954	0.000000	0.000000	19.443485	6.869302	11.202496	15.096173	-14.485135	67.386924	59.742245	58.366530	5.862279	-0.953699	2.241723	-13.283168	37.152282	64.254540	80.014358	14.271269	1.794894
0.118644	-1.916230	-4.027807	97.769902	0.100017	0.988941	0.533152	2.741483	-2.525829	-4.302583	9.278931	0.161948	32.088281	10.399322	0.000000	5.152029	2.222972	8.471365	12.427215	0.216896	28.118969	-4.425257	0.000000	0.038184	-0.112567	-0.415353	0.070911	-0.149714	-0.441312	0.062732	-0.273695	-0.441312	0.043640	-0.273695	-0.363433	0.035457	-0.229546	-0.337474	0.021818	-0.174366	-0.311514	0.272742	-1.273378	-2.310066	0.000000	0.000000	19.396114	6.851933	11.457859	15.017068	-14.653015	67.618461	59.867254	56.579839	5.606618	-0.252727	2.095715	-13.330493	36.862499	64.446952	80.966959	14.366770	1.620364
0.135593	-2.017429	-3.996436	97.620894	0.099871	0.988835	0.532889	2.678496	-2.688761	-4.590882	9.284400	0.162043	32.149996	11.027317	0.000000	5.098745	2.346650	8.466430	12.469360	0.217631	28.291788	-4.585174	0.000000	0.034739	-0.121270	-0.390887	0.064514	-0.161289	-0.415318	0.057072	-0.294855	-0.415318	0.039703	-0.294855	-0.342026	0.032258	-0.247293	-0.317596	0.019850	-0.187847	-0.293165	0.248136	-1.371829	-2.173998	0.000000	0.000000	19.359459	6.840002	11.704739	14.885604	-14.809310	67.808287	59.939184	54.734185	5.370513	0.577968	1.889751	-13.375980	36.503867	64.639895	81.936886	14.453411	1.439039
0.152542	-2.119655	-3.964119	97.474909	0.099758	0.988740	0.532633	2.617178	-2.839790	-4.808265	9.262339	0.161658	32.187139	11.572001	0.000000	5.039172	2.466202	8.454767	12.503697	0.218231	28.433986	-4.731641	0.000000	0.031204	-0.130971	-0.367890	0.057949	-0.174192	-0.390883	0.051265	-0.318444	-0.390883	0.035663	-0.318444	-0.321904	0.028976	-0.267077	-0.298911	0.017830	-0.202875	-0.275918	0.222887	-1.481574	-2.046095	0.000000	0.000000	19.339493	6.828873	11.940273	14.704952	-14.960062	67.953426	59.971134	52.867095	5.149102	1.505016	1.629637	-13.423207	36.088451	64.836952	82.887814	14.517176	1.255910
0.169492	-2.219573	-3.932033	97.338124	0.099674	0.988657	0.532395	2.559328	-2.976098	-4.959591	9.217448	0.160875	32.202977	12.027447	0.000000	4.978956	2.577808	8.425563	12.534402	0.218767	28.554673	-4.844737	0.000000	0.027719	-0.141179	-0.347322	0.051478	-0.187768	-0.369030	0.045540	-0.343262	-0.369030	0.031681	-0.343262	-0.303907	0.025740	-0.287891	-0.282199	0.015839	-0.218686	-0.260492	0.197998	-1.597041	-1.931702	0.000000	0.000000	19.342192	6.813910	12.161596	14.478279	-15.111315	68.050903	59.976202	51.016099	4.937522	2.495049	1.321179	-13.475752	35.628318	65.041705	83.783419	14.544049	1.075970
0.186441	-2.306518	-3.905256	97.223290	0.099564	0.988575	0.532178	2.516461	-3.094813	-5.098585	9.177079	0.160170	32.215320	12.433840	0.000000	4.925499	2.682469	8.454954	12.565497	0.219309	28.669499	-5.018068	0.000000	0.026141	-0.149399	-0.331818	0.048547	-0.198701	-0.352556	0.042948	-0.363250	-0.352556	0.029877	-0.363250	-0.290340	0.024275	-0.304655	-0.269602	0.014937	-0.231420	-0.248863	0.186726	-1.690036	-1.845470	0.000000	0.000000	19.436078	6.760516	12.382391	14.165197	-15.297754	68.040824	60.019907	49.322730	4.702451	3.295097	0.993047	-13.515550	35.149478	65.238470	84.610523	14.591029	0.876050
0.203390	-2.372945	-3.866986	97.127469	0.099503	0.988522	0.532045	2.468149	-3.170730	-5.118412	9.101295	0.158848	32.212124	12.667503	0.000000	4.892435	2.742762	8.311359	12.638476	0.220583	28.834790	-4.941718	0.000000	0.021938	-0.156067	-0.318351	0.040741	-0.207569	-0.338248	0.036042	-0.379462	-0.338248	0.025073	-0.379462	-0.278557	0.020371	-0.318252	-0.258660	0.012535	-0.241748	-0.238763	0.156700	-1.765464	-1.770571	0.000000	0.000000	19.611251	6.656538	12.496260	13.834478	-15.515420	68.030841	60.055161	47.673161	4.498866	4.122421	0.622377	-13.560410	34.644868	65.432981	85.024150	14.562812	0.721484
0.220339	-2.425488	-3.835779	97.075084	0.099462	0.988481	0.531958	2.431441	-3.216568	-5.064568	9.007269	0.157206	32.207773	12.758789	0.000000	4.884433	2.771135	8.027628	12.721231	0.222027	29.032328	-4.633217	0.000000	0.019012	-0.162248	-0.314248	0.035307	-0.215789	-0.333889	0.031234	-0.394489	-0.333889	0.021729	-0.394489	-0.274967	0.017654	-0.330856	-0.255327	0.010863	-0.251322	-0.235686	0.135799	-1.835379	-1.747756	0.000000	0.000000	19.812103	6.531547	12.554988	13.484615	-15.752000	68.004586	60.096517	46.092468	4.295617	5.016439	0.176734	-13.627940	34.088659	65.672972	85.215189	14.384143	0.615802
0.237288	-2.464213	-3.809741	97.062913	0.099440	0.988467	0.531940	2.409440	-3.238472	-4.992625	8.911241	0.155531	32.203381	12.781040	0.000000	4.906585	2.767405	7.588117	12.823069	0.223805	29.262163	-4.086094	0.000000	0.016365	-0.167501	-0.318772	0.030391	-0.222777	-0.338695	0.026886	-0.407263	-0.338695	0.018703	-0.407263	-0.278925	0.015196	-0.341569	-0.259002	0.009351	-0.259460	-0.239079	0.116891	-1.894808	-1.772912	0.000000	0.000000	20.025810	6.404190	12.608173	13.130223	-16.005785	67.946680	60.145567	44.615124	4.094179	5.945502	-0.325799	-13.723436	33.489793	65.954314	85.262514	14.095746	0.561173
0.254237	-2.492282	-3.811831	97.115148	0.099415	0.988452	0.531973	2.415963	-3.235165	-4.824057	8.816717	0.153881	32.166531	12.573648	0.000000	4.976081	2.749814	7.105657	12.928222	0.225640	29.488378	-3.423069	0.000000	0.017641	-0.172759	-0.334391	0.032761	-0.229769	-0.355291	0.028983	-0.420046	-0.355291	0.020162	-0.420046	-0.292592	0.016382	-0.352290	-0.271693	0.010080	-0.267604	-0.250794	0.126009	-1.954284	-1.859785	0.000000	0.000000	20.230209	6.299793	12.688515	12.732327	-16.261998	67.760214	60.220203	43.507381	3.863139	6.845267	-0.852134	-13.896294	32.969261	66.300045	85.131470	13.540362	0.538900
0.271186	-2.503387	-3.820576	97.186692	0.099405	0.988462	0.532116	2.424524	-3.200847	-4.531595	8.705210	0.151935	32.053079	12.147320	0.000000	5.081569	2.701832	6.495275	13.059419	0.227930	29.734343	-2.569018	0.000000	0.018325	-0.176375	-0.354498	0.034031	-0.234579	-0.376654	0.030106	-0.428838	-0.376654	0.020944	-0.428838	-0.310185	0.017017	-0.359664	-0.288029	0.010471	-0.273205	-0.265873	0.130893	-1.995189	-1.971609	0.000000	0.000000	20.424099	6.185862	12.749659	12.354872	-16.533050	67.490837	60.318619	42.740450	3.682680	7.695039	-1.388122	-14.119172	32.467600	66.721131	84.802742	12.918061	0.661940
0.288136	-2.513703	-3.832428	97.283151	0.099400	0.988501	0.532315	2.438079	-3.166175	-4.259290	8.630754	0.150635	31.920710	11.659278	0.000000	5.196671	2.651343	5.837726	13.186279	0.230144	29.954054	-1.644008	0.000000	0.018497	-0.179745	-0.378318	0.034351	-0.239060	-0.401963	0.030389	-0.437031	-0.401963	0.021140	-0.437031	-0.331029	0.017176	-0.366535	-0.307384	0.010569	-0.278424	-0.283739	0.132123	-2.033308	-2.104093	0.000000	0.000000	20.553836	6.107408	12.915791	11.985007	-16.811151	67.178750	60.476809	42.028721	3.392718	8.389889	-1.898423	-14.392220	31.977498	67.163804	84.761770	12.348913	0.719706
